<svg id="color_line" height="512" viewBox="0 0 74 74" width="512" xmlns="http://www.w3.org/2000/svg" data-name="color line"><path d="m50.272 4.817a20.638 20.638 0 0 0 -13.272 4.813 20.722 20.722 0 0 0 -34 15.915c0 26.908 34 46.963 34 46.963s34-20.055 34-46.963a20.728 20.728 0 0 0 -20.728-20.728z" fill="#fe7058"/><path d="m53.94 5.143a20.707 20.707 0 0 1 9.23 17.25c0 23.32-25.54 41.5-32.35 45.93 3.67 2.71 6.18 4.19 6.18 4.19s34-20.06 34-46.97a20.723 20.723 0 0 0 -17.06-20.4z" fill="#ea6453"/><g fill="#323c6b"><path d="m37 73.008a.491.491 0 0 1 -.254-.07c-.346-.202-34.246-20.51-34.246-47.393a21.222 21.222 0 0 1 34.5-16.561 21.222 21.222 0 0 1 34.5 16.561c0 26.883-33.9 47.191-34.246 47.393a.491.491 0 0 1 -.254.07zm-13.272-67.691a20.251 20.251 0 0 0 -20.228 20.228c0 25.1 30.388 44.462 33.5 46.378 3.112-1.916 33.5-21.288 33.5-46.378a20.222 20.222 0 0 0 -33.18-15.531.5.5 0 0 1 -.64 0 20.246 20.246 0 0 0 -12.952-4.697z"/><path d="m69.357 44.246a.49.49 0 0 1 -.225-.054.5.5 0 0 1 -.221-.671c.173-.343.336-.691.5-1.039l.133-.282a.5.5 0 1 1 .905.425l-.132.281c-.167.357-.334.715-.511 1.066a.5.5 0 0 1 -.449.274z"/><path d="m61.583 55.861a.5.5 0 0 1 -.383-.82 64.821 64.821 0 0 0 6.039-8.467.5.5 0 0 1 .861.51 65.917 65.917 0 0 1 -6.132 8.6.5.5 0 0 1 -.385.177z"/><path d="m14.375 4.253a.5.5 0 0 1 -.2-.959c.5-.217 1.012-.424 1.532-.607a.5.5 0 1 1 .332.943c-.5.176-.986.374-1.468.582a.5.5 0 0 1 -.196.041z"/><path d="m33.75 4.551a.494.494 0 0 1 -.211-.047 23.044 23.044 0 0 0 -13.828-1.832.5.5 0 1 1 -.172-.985 24.038 24.038 0 0 1 14.422 1.913.5.5 0 0 1 -.211.953z"/></g><path d="m21.024 54.25a.748.748 0 0 1 -.546-.237c-.364-.388-.727-.779-1.085-1.178a.75.75 0 1 1 1.115-1c.352.392.707.775 1.063 1.155a.749.749 0 0 1 -.547 1.263z" fill="#fff"/><path d="m17.47 50.167a.749.749 0 0 1 -.585-.281 51.311 51.311 0 0 1 -6.62-10.446.75.75 0 1 1 1.361-.629 49.871 49.871 0 0 0 6.429 10.136.75.75 0 0 1 -.116 1.053.741.741 0 0 1 -.469.167z" fill="#fff"/></svg>