<svg id="color_line" height="512" viewBox="0 0 74 74" width="512" xmlns="http://www.w3.org/2000/svg" data-name="color line"><path d="m37 9.652a20.621 20.621 0 0 0 -13.264-4.81c-11.44 0-21.258 9.287-20.714 20.714.743 15.644 33.978 43.602 33.978 43.602s33.235-27.958 33.978-43.602c.544-11.427-9.278-20.714-20.714-20.714a20.621 20.621 0 0 0 -13.264 4.81z" fill="#fe7058"/><path d="m50.18 53.23c.74.48 1.47.95 2.19 1.4-7.92 8.26-15.37 14.53-15.37 14.53s-.59-.49-1.61-1.39c3.51-3.15 9.24-8.48 14.79-14.54z" fill="#ea6453"/><path d="m45.23 6.47a20.659 20.659 0 0 0 -3.8.35 20.553 20.553 0 0 1 8.83-1.98 21.063 21.063 0 0 1 18.63 11.18c-1.57.75-3.16 1.48-4.75 2.2a21.026 21.026 0 0 0 -18.91-11.75z" fill="#ea6453"/><path d="m70.99 24.89c0 .22 0 .45-.01.67-.31 6.32-5.92 14.66-12.49 22.35-.8-.5-1.6-1.01-2.42-1.53 5.39-6.76 9.6-13.72 9.87-19.19 1.72-.76 3.41-1.52 5.05-2.3z" fill="#ea6453"/><path d="m70.99 24.91a263.811 263.811 0 0 1 -29.36 11.75q-5.1 1.725-10.34 3.24-9 2.655-18.43 4.79a77.06 77.06 0 0 1 -5.52-7.76q7.845-1.59 15.61-3.71h.01q5.1-1.38 10.16-2.99a275.5 275.5 0 0 0 35.79-14.18 18.668 18.668 0 0 1 2.08 8.86z" fill="#eeefee"/><path d="m33.12 30.23q-5.055 1.605-10.16 2.99h-.01q-9.27-7.695-18.22-16.42a20.11 20.11 0 0 1 5.42-7.02 249 249 0 0 0 22.97 20.45z" fill="#eeefee"/><path d="m22.96 33.72a.526.526 0 0 1 -.329-.116c-6.089-5.053-12.231-10.587-18.249-16.446a.5.5 0 0 1 -.106-.568 20.7 20.7 0 0 1 5.555-7.19.5.5 0 0 1 .675.033 249.566 249.566 0 0 0 22.924 20.404.5.5 0 0 1 -.159.87c-3.417 1.084-6.842 2.092-10.18 2.995a.487.487 0 0 1 -.131.018zm-17.625-17.03c5.854 5.686 11.819 11.06 17.737 15.981 2.955-.8 5.976-1.687 9-2.634a250.43 250.43 0 0 1 -21.951-19.577 19.741 19.741 0 0 0 -4.786 6.23z" fill="#323c6b"/><path d="m58.45 47.94c-1.98 2.32-4.05 4.58-6.09 6.7q-10.725-6.735-21.07-14.74 5.25-1.515 10.34-3.24 8.13 5.895 16.82 11.28z" fill="#eeefee"/><path d="m65.94 27.18a18.712 18.712 0 0 0 -1.8-8.96c1.59-.72 3.18-1.45 4.75-2.2a18.6 18.6 0 0 1 2.1 8.87c-1.64.78-3.33 1.54-5.05 2.3z" fill="#e1e6e9"/><path d="m58.49 47.91c-2 2.33-4.07 4.59-6.12 6.72-.72-.45-1.45-.92-2.19-1.4 2.02-2.21 4.02-4.52 5.89-6.85.82.52 1.62 1.03 2.42 1.53z" fill="#e1e6e9"/><path d="m37 69.658a.5.5 0 0 1 -.322-.117c-1.364-1.147-33.41-28.279-34.156-43.961a19.579 19.579 0 0 1 5.529-14.532 21.765 21.765 0 0 1 15.685-6.706 21.233 21.233 0 0 1 13.264 4.664 21.233 21.233 0 0 1 13.264-4.664 21.765 21.765 0 0 1 15.685 6.706 19.579 19.579 0 0 1 5.529 14.532c-.746 15.682-32.792 42.814-34.156 43.961a.5.5 0 0 1 -.322.117zm-13.264-64.316a20.763 20.763 0 0 0 -14.962 6.4 18.588 18.588 0 0 0 -5.253 13.79c.686 14.432 30.056 40.034 33.479 42.968 3.423-2.935 32.793-28.537 33.479-42.969a18.588 18.588 0 0 0 -5.253-13.794 20.763 20.763 0 0 0 -14.962-6.4 20.233 20.233 0 0 0 -12.944 4.699.5.5 0 0 1 -.64 0 20.233 20.233 0 0 0 -12.944-4.694z" fill="#323c6b"/><path d="m12.86 45.19a.5.5 0 0 1 -.39-.19 77.481 77.481 0 0 1 -5.557-7.811.5.5 0 0 1 .327-.751c5.13-1.04 10.371-2.285 15.579-3.7a.442.442 0 0 1 .05-.01c3.313-.9 6.71-1.9 10.1-2.974a276.135 276.135 0 0 0 35.725-14.154.5.5 0 0 1 .661.222 19.079 19.079 0 0 1 2.135 9.1.5.5 0 0 1 -.286.444 265.482 265.482 0 0 1 -29.416 11.768c-3.428 1.16-6.914 2.252-10.359 3.246-5.854 1.727-12.065 3.342-18.457 4.8a.476.476 0 0 1 -.112.01zm-4.716-7.914a77.429 77.429 0 0 0 4.912 6.856c6.263-1.432 12.349-3.017 18.092-4.712 3.435-.99 6.907-2.078 10.322-3.233a264.807 264.807 0 0 0 29.022-11.595 18.034 18.034 0 0 0 -1.81-7.879 277.208 277.208 0 0 1 -35.411 13.994c-3.417 1.084-6.842 2.092-10.18 2.995a.431.431 0 0 1 -.049.011c-4.978 1.354-9.985 2.552-14.898 3.563z" fill="#323c6b"/><path d="m53.677 19.127a.75.75 0 0 1 -.291-1.441l1.037-.439a.75.75 0 0 1 .588 1.38l-1.043.442a.748.748 0 0 1 -.291.058z" fill="#fff"/><path d="m39.97 24.454a.75.75 0 0 1 -.254-1.454c3.477-1.252 7.457-2.778 10.918-4.188a.75.75 0 0 1 .566 1.388c-3.479 1.416-7.48 2.951-10.976 4.209a.755.755 0 0 1 -.254.045z" fill="#fff"/><g fill="#323c6b"><path d="m52.36 55.14a.494.494 0 0 1 -.265-.077c-7.136-4.48-14.239-9.449-21.111-14.768a.5.5 0 0 1 .167-.876c3.432-.989 6.9-2.077 10.319-3.232a.5.5 0 0 1 .454.068c5.366 3.891 11.015 7.68 16.79 11.26a.5.5 0 0 1 .116.75c-1.871 2.192-3.927 4.454-6.109 6.722a.5.5 0 0 1 -.361.153zm-19.985-15.04c6.492 4.987 13.184 9.658 19.907 13.9 1.918-2 3.735-4 5.409-5.943-5.547-3.455-10.975-7.1-16.145-10.841-3.037 1.024-6.116 1.994-9.171 2.884z"/><path d="m16.812 54.44a.5.5 0 0 1 -.369-.162c-2.634-2.867-4.987-5.633-7-8.221a.5.5 0 0 1 .791-.614c1.99 2.567 4.325 5.311 6.941 8.159a.5.5 0 0 1 -.368.838z"/><path d="m8.5 44.333a.5.5 0 0 1 -.408-.211l-.426-.609a.5.5 0 0 1 .824-.567l.418.6a.5.5 0 0 1 -.408.788z"/><path d="m46 2.749a.5.5 0 0 1 -.089-.992c.508-.093 1.018-.172 1.531-.233a.5.5 0 0 1 .118.993c-.493.058-.983.134-1.469.223a.468.468 0 0 1 -.091.009z"/><path d="m63.439 6.257a.493.493 0 0 1 -.271-.081 23.7 23.7 0 0 0 -12.754-3.83.5.5 0 0 1 0-1 24.69 24.69 0 0 1 13.297 3.991.5.5 0 0 1 -.272.92z"/></g></svg>